<?xml version="1.0" standalone="yes"?><svg xmlns="http://www.w3.org/2000/svg" viewBox="0 0 1540 550" style="zoom: 1;"><defs><g id="en" width="300" height="107" fill="currentColor"><text stroke="none" style="outline-style: none;" id="text1" stroke-width="1px" x="757.514832px" text-rendering="geometricPrecision" font-family="Helvetica" fill="#000000" font-size="150px" y="191.70459px" transform="rotate(355 810.109375 1.085938)" text-anchor="middle" font-style="italic" font-weight="bolder">FORMATIVE</text><text stroke="none" style="outline-style:none;" id="text2" stroke-width="1px" x="761.842712px" font-weight="bolder" text-rendering="geometricPrecision" font-family="Helvetica" fill="darkgreen" font-size="160px" y="387.59201px" transform="rotate(355 740.59375 185.039062)" font-style="italic" text-anchor="middle">RESEARCH</text></g><g id="es" width="300" height="107" fill="currentColor"><path d="M1020.7 253.7c-13.6-1.1-15.4-19.4-32.8-17.2-8.4.3-16.3 4-16 11.9.4 11.7 18.5 12.1 29.6 14.8 18.8 5 37 8.2 37.7 28.4.9 25.7-18.9 35.3-45.4 36.3-22.2.7-45-6.3-45.7-26.8-.2-5.7 5-10.3 10.3-10.5s9.2 2.5 11.6 7.1c5.5 8.8 11.5 13.6 25.8 13.1 9.1-.3 18.3-4.2 18.1-12-.4-11.2-12-13.2-23.9-15.6-21.2-5.2-39.2-7.5-42.1-30.7-3.5-39.6 79-43.9 84.9-9.4-.1 6.3-5.9 10.4-12.1 10.6zm97.1-38.2c29-1 46.3 22.7 47.3 52.6s-14 54.6-43.6 55.7a38.6 38.6 0 01-34.6-16.6l1.4 39.7c.4 11.9-3.2 17.8-11.9 18.2-10.6.3-12.8-6.4-13.2-17.3l-4-115.3c-.3-9.4 3.5-15.3 12-15.6s12.8 6 13.1 14.8v3.2c8-10.5 17.1-18.8 33.5-19.4zm-3.8 88c17-.6 24-16.5 23.4-34.8s-8.9-33.8-25.8-33.2-25.4 15.5-24.7 34.9 9.5 33.7 27.1 33.1zm70-61.9c-.8-20.9 23-29.2 46.2-30 32.7-1.1 46.4 7.9 47.5 39.4l1.1 30.3c.2 7.3 5.2 21.5 5.3 25.8.3 6.6-5.6 10.9-12.1 11.2s-12.9-8-16.9-14a58.4 58.4 0 01-38.6 15.9c-19 .7-34.4-10-35-28.6-.6-16.4 10.8-26.2 24.9-29.9 0 .1 45.1-12.3 45.1-12.5-.5-13.9-5.7-19.9-20.4-19.4-12.9.4-19.4 4.2-24.2 12.2-3.9 6-3.2 9.5-11 9.8-6.1.2-11.7-4-11.9-10.2zm41 61.2c19.9-.7 27.9-11.5 27.2-32.5l-.2-4.4c-5.2 2-26.7 8.1-32.6 9.2s-12.3 6.3-12.1 13.7 9.1 14.3 17.7 14zm141.8-135.6c28-.9 59.1 14.8 60.1 41.5.2 6.9-4.8 12.7-11.5 13-9.2.3-10.7-4.6-15-11.5-7.2-12.1-15.5-20.2-33-19.6-26.8.7-38.1 24.3-37.1 53s11.8 49.4 39.6 48.4c18.4-.6 28.3-11.7 33.1-25.7 2-6.5 5.5-12.8 13.6-13.1 6.3-.2 12.7 6 13 12.9 1 28.3-27.3 48.8-56.9 49.9-32.6 1.1-51.5-12-62.3-34.5a86.4 86.4 0 01-9.4-37.6c-2-43.9 22.5-75.1 65.8-76.7zm162 34c7.2-.3 11.5 4.3 11.8 11.5.1 2.9-2 8.9-2.9 12.1l-31.4 92.1c-7 20-12.3 33.8-38.5 34.7-12.4.5-23.3-.2-23.7-11.1-.2-6.3 4.4-9.6 11-9.8 1.2 0 3.3.5 4.5.5a41.6 41.6 0 014.5.4c13.1-.5 14.5-14 18.8-23.5l-36.2-81.4c-2.1-4.4-3.5-7.3-3.6-10-.3-7.2 5.2-12.7 12.8-13s12 6.2 14.5 13.5l24.3 64.7 19.9-61.3c3-9.5 3-19 14.2-19.4zM220.8 338.2l-56.8 4-83.2-129.9L66.5 349 0 353.7l27.4-261 56.5-3.9 83.3 130.6 14.6-137.5 66.5-4.6zM327.1 275.5l102.3-7.2-6.2 59.7-168.8 11.8 27.4-260.9 66.5-4.7zM479.5 63.4l108.9-7.6c26.5-1.8 48.1 5 64.1 20.5s23.4 37.1 21.2 64.6c-3.3 52.5-37.1 84.3-89.5 88l-56.5 4-9.1 86.8-66.5 4.7zm60.3 55l-5.8 55.2 43-3.1c16.6-1.1 28-11.6 29.5-29.7 1.3-15.7-7.4-26.5-23.6-25.4zM656.2 332.4a26.3 26.3 0 01-4.9-.5c-3.1-.9-13.2-4.8-14.1-21.3v-5.2a145 145 0 016.7-37.4c4.5-12.6 10.7-19.2 18.4-19.7h.5a15.2 15.2 0 015.2 1.2h.2c4.3 2.2 9.1 10.3 9.4 16v.8c-.1 1.7-.1 3.7-3.3 4.9h-.8a4.3 4.3 0 01-3.8-1.7 14 14 0 01-2.2-4.2c-1-2.5-1.8-4.1-3.1-4.5s-3.5 3.7-4.8 7.2a82.7 82.7 0 00-6.2 35.5c.5 8.4 3.4 12.7 8.7 12.7h.6a26 26 0 0011.6-4.3 149.9 149.9 0 0045.1-41.1l1.8-2.2h.1a7.1 7.1 0 013.7-1.9h.3a2.9 2.9 0 013 2.2v1.4a5.4 5.4 0 01-.9 3.3 161.3 161.3 0 01-47.1 49.6 52.5 52.5 0 01-22.8 9.1z"></path><path d="M662.7 249.7a15.3 15.3 0 014.8 1c3.9 2 8.4 9.5 8.7 14.9-.2 2.2.2 3.5-2.5 4.5h-.3a3 3 0 01-2.7-1.2c-2.3-2.6-2.7-8.8-6.5-9.3s-4.8 5.1-6 8.1a88 88 0 00-6.3 36.1c.5 8.1 3.4 14 10.1 14h.7a27 27 0 0012.2-4.4c23.8-13.9 34.6-28 47.2-43.6a5.2 5.2 0 012.9-1.5h.2a1.7 1.7 0 011.7 1.2v1a3.3 3.3 0 01-.7 2.5c-7 13.4-28.5 38.4-46.6 49.2-8.3 5-15.7 8.4-22.1 8.8h-1.4a23.1 23.1 0 01-4.6-.5c-5.8-1.6-12.3-7.4-13.1-20.1v-5.1c1.5-25 8.2-54.8 23.8-55.7h.4m0-2.7h-.6c-21.2 1.2-25.5 44.9-26.3 58.2v5.4c1 17.3 11.8 21.6 15.1 22.5h.1a22.4 22.4 0 005.2.6h1.5c6.3-.4 13.5-3.2 23.4-9.2 19-11.4 40.4-36.7 47.5-50a6.2 6.2 0 001.1-4.1v-1.8a4.3 4.3 0 00-4.3-3.1h-.4a7.3 7.3 0 00-4.5 2.2l-.2.2h-.1l-1.7 2.1c-12.1 15-22.5 27.9-44.8 40.8-4.2 2.6-7.9 4-10.9 4.2h-.6c-4.5 0-6.9-3.9-7.4-11.5a83 83 0 016.1-34.9 17.9 17.9 0 013.7-6.1 11.9 11.9 0 011.7 3.4 17.6 17.6 0 002.4 4.5 5.6 5.6 0 004.9 2.3h.9l.4-.2c4-1.4 4.1-4.2 4.1-6.1a1.5 1.5 0 00.1-.7v-.2c-.4-6.3-5.4-14.8-10.2-17.2h-.3a15.7 15.7 0 00-5.7-1.2z"></path><path d="M733 326.7c-5.5 0-9.9-3.5-13.1-10.3a29.2 29.2 0 01-3-9.6 176.4 176.4 0 010-23c.4-6.7 2.5-14.1 6-22.1 3-6.2 6.3-9.5 10.1-9.7h.5c3.3 0 6.3 1.9 9.3 5.8a54.9 54.9 0 0110.1 29.4c7.1-3.2 15-8.5 23.4-15.8 4.7-4.4 8.3-7 9.8-7.1h.4c1.8 0 2.7.9 2.8 2.9s-.5 1.3-1.3 2.2a134.3 134.3 0 01-25.8 23.1l-7.5 4.7-1.5.9a35.3 35.3 0 01-8.2 22.1c-3.6 4.1-7.4 6.2-11.2 6.5zm1.9-56.1a178.3 178.3 0 00-3.6 26.8c-.5 10 .7 15.1 3.3 15.2l2.2-.3c.3-2.5.4-5 .5-7.4a149.6 149.6 0 00-2.4-34.3z"></path><path d="M733.5 252.3c3.3 0 6.2 2 9 5.7a55.1 55.1 0 0110.1 29.7 99.2 99.2 0 0023.9-16c4.9-4.6 8.3-7 9.6-7.1h.4c1.6 0 2.4.8 2.5 2.6s-.5 1.1-1.3 1.9a130.3 130.3 0 01-25.7 23.2l-9.1 5.6a35 35 0 01-8.2 22.1c-3.5 4-7.2 6.1-10.9 6.3h-.8c-5.3 0-9.6-3.2-12.8-10a30 30 0 01-3-9.6 193.3 193.3 0 010-22.9 68 68 0 016.1-22c2.8-6.1 6.2-9.3 9.7-9.5h.5m1.1 60.7l2.5-.5c.3-2.5.4-5.1.6-7.6a151.3 151.3 0 00-2.8-36 179.3 179.3 0 00-4 28.5c-.4 10.3.7 15.4 3.7 15.6m-1.1-61.4h-.6c-3.8.2-7.3 3.5-10.3 9.8a65.5 65.5 0 00-6 22.2 196.9 196.9 0 00-.1 23.1 30.4 30.4 0 003.1 9.8c3.3 6.9 7.8 10.4 13.4 10.4h.8c3.9-.2 7.8-2.4 11.4-6.5a35.9 35.9 0 008.4-22.2l1.3-.9 7.5-4.6a131.9 131.9 0 0025.8-23.2c.9-.9 1.5-1.6 1.4-2.5s-1.1-3.1-3.1-3.1h-.4c-2.2.1-7.2 4.6-10 7.2a99.4 99.4 0 01-22.9 15.5 54.6 54.6 0 00-10.2-29.1c-3-4-6.1-6-9.5-6zm1 60.7c-1-.1-1.9-1.3-2.4-3.5a52 52 0 01-.5-11.4 172.6 172.6 0 013.3-25 158.7 158.7 0 012.1 32.5c-.1 2.3-.2 4.7-.5 7.1l-2 .3z"></path><path d="M790.3 313c-7.6-.7-11.8-6.8-12.4-17.9a109.1 109.1 0 01-.1-11.4l.1-1.9c0-.6.4-3.5.5-6l.2-9.7a26.3 26.3 0 011.3-7.8 8.7 8.7 0 013.2-4.3 8.6 8.6 0 015.3-1.6h.3c4.2.7 6.6 3 6.8 6.6.7 11.6 1 20.6 1.2 26.9l3.4-6.5c1.2-2.4 4-7.3 6.2-11 12-19.2 20.3-28.3 26.2-28.6h.5a16.8 16.8 0 014 .6h.3a14.5 14.5 0 018.1 11.7c.2 4.1.4 8 .4 11.8v4c.5 8.7 2.3 15.1 5.4 19.1s4.5 4.4 7.5 4.4h.5c5.9-.9 12.5-4.4 19.2-10.3s13.2-12 17.8-16.9 8.3-7.6 10-7.7h.3a3.8 3.8 0 013.9 3v.2a4.4 4.4 0 01-1.3 3.2 299 299 0 01-24 25.7 53.4 53.4 0 01-29 16.4h-1.4a23.4 23.4 0 01-15.1-5.6c-4.7-4-8-11.2-10-22.2h-.1l-1.4-17.6a41.9 41.9 0 00-7.2 8.5 224.5 224.5 0 00-17.1 28.7q-1.8 3.8-3.9 7.5c-3 6.8-6.7 8.4-9.4 8.5h-.2z"></path><path d="M833 241.1a14.8 14.8 0 013.7.6 13 13 0 017.3 10.7 114.4 114.4 0 01.4 11.6v4c.5 9.2 2.5 15.8 5.8 20s5 4.8 8.5 4.8h.7c6.1-.9 12.9-4.5 19.9-10.6s12.8-11.5 17.9-17 7.4-7.2 9-7.2h.3a2.5 2.5 0 012.6 2.1 3.4 3.4 0 01-1 2.2 320.1 320.1 0 01-23.9 25.7 51.7 51.7 0 01-28.3 15.9h-1.2a21.9 21.9 0 01-14.2-5.4q-6.7-5.7-9.6-21.3l-1.7-19.9a35.9 35.9 0 00-9.4 10.3 230.6 230.6 0 00-17.3 28.8c-1.2 2.5-2.4 5-3.8 7.5-2.2 5-5 7.6-8.2 7.8-6.8-.7-10.7-6.2-11.3-16.7-.2-4-.2-7.8-.1-11.3a63.9 63.9 0 00.6-7.9l.3-9.7a24.8 24.8 0 011.2-7.4 8 8 0 012.7-3.7 8.6 8.6 0 014.5-1.3c3.6.6 5.6 2.4 5.8 5.3.8 14.3 1.1 24.8 1.3 31.6 1.9-3.1 3.9-6.7 5.8-10.6s3.9-7.3 6.1-10.9c11.4-18.2 19.8-27.6 25.2-28h.4m0-2.7h-.6c-6.5.3-14.9 9.3-27.2 29.2-2.3 3.7-4.3 7.4-6.3 11l-1 2-1-21.9c-.3-4.2-3.2-7-8-7.9h-.6a10.7 10.7 0 00-6 1.9 10.5 10.5 0 00-3.6 4.8h-.1a26.6 26.6 0 00-1.3 8.2v4.8l-.2 5a46.9 46.9 0 01-.4 5.9l-.2 1.8c-.1 3.7-.1 7.4.1 11.5.5 8.2 3.3 18.1 13.7 19.2h.4c3-.2 7.3-1.9 10.5-9.3 1.5-2.5 2.7-5.1 3.9-7.5a204.8 204.8 0 0117-28.5 46.1 46.1 0 015-6.3l1.2 14.6v.2c2.1 11.2 5.6 18.7 10.6 22.9a24.1 24.1 0 0015.9 6h1.6a55.3 55.3 0 0029.8-16.7 319.2 319.2 0 0024.1-25.9 6.1 6.1 0 001.6-4.1v-.5a5.2 5.2 0 00-5.2-4.1h-.4c-2.5.1-5.4 2.3-10.8 8.1a241.3 241.3 0 01-17.8 16.8 37.7 37.7 0 01-18.4 9.9h-.4c-2.5 0-4.6-1.3-6.3-3.8h-.1a34 34 0 01-5.2-18.3v-4c.1-3.9-.1-7.7-.4-11.8-.6-5.8-3.6-10-8.8-12.8h-.5a20.8 20.8 0 00-4.4-.7z"></path><path d="M785.2 51.7l28.2 105.5-27.7 2-5.3-20.5-39 2.7-10 21.5-27.9 2 53.1-111.2zm-32.7 65.9l22.3-1.6-7.5-29.8zM837.2 155.3L810.8 49.7l28-2 16.2 68.4 33.3-71.8 29.6-2.1-53.3 111.2zM972.5 38l28.2 105.4-27.7 2-5.3-20.5-39 2.7-10.1 21.6-27.8 1.9L943.9 40zm-32.7 65.8l22.3-1.6-7.5-29.7zM1103.2 136.2l-21.6 1.6-38.6-62.1-6.8 65.2-27 1.9 11.3-108.2 25.1-1.8 35.4 58.6 6.6-61.5 27-1.9zM1202.5 129.3l-85.9 6 2.1-21 56.2-66.4-48.7 3.5 2.6-24.4 84.7-5.9-2.3 20.8-55.3 66.3 49.2-3.4zM1290.4 15.7l28.2 105.5-27.7 1.9-5.3-20.4-39 2.7-10 21.5-27.9 2 53.2-111.2zm-32.7 65.8L1280 80l-7.5-29.8zM1338.5 12.4l39.5-2.8c30.1-2.1 47.2 13.7 49.1 41.2 2.5 36.4-21.4 64.3-59.2 66.9l-40.8 2.9zm30.5 80.9c20.2-1.4 31.7-16.9 30.2-37.8-1-14.4-9.2-22.6-24.6-21.5l-11.1.8-6.2 59.4zM1435.1 66c-2.5-35.7 20.6-63.6 52.5-65.8 29.6-2.1 49.5 16.8 51.4 45.2 2.5 35.7-20.5 63.6-52.4 65.8-29.6 2.1-49.5-16.8-51.5-45.2zm75.8-17.9c-1-14.5-9.8-24.2-22.5-23.3-15.6 1.1-26.7 15.9-25.1 38.5 1 14.5 9.7 24.2 22.4 23.3 15.5-1.1 26.8-15.9 25.2-38.5z"></path></g></defs></svg>